<svg xmlns="http://www.w3.org/2000/svg" xmlns:xlink="http://www.w3.org/1999/xlink" version="1.1" width="1767px" height="1637px" viewBox="-0.5 -0.5 1767 1637"><defs><clipPath id="mx-clip-570-419-195-124-0"><rect x="570" y="419" width="195" height="124"/></clipPath><clipPath id="mx-clip-570-551-195-262-0"><rect x="570" y="551" width="195" height="262"/></clipPath><clipPath id="mx-clip-1267-616-187-29-0"><rect x="1267" y="616" width="187" height="29"/></clipPath><clipPath id="mx-clip-1267-653-187-92-0"><rect x="1267" y="653" width="187" height="92"/></clipPath><clipPath id="mx-clip-1515-467-232-34-0"><rect x="1515" y="467" width="232" height="34"/></clipPath><clipPath id="mx-clip-1515-509-232-97-0"><rect x="1515" y="509" width="232" height="97"/></clipPath><clipPath id="mx-clip-847-441-187-64-0"><rect x="847" y="441" width="187" height="64"/></clipPath><clipPath id="mx-clip-847-513-187-157-0"><rect x="847" y="513" width="187" height="157"/></clipPath><clipPath id="mx-clip-1280-1369-202-14-0"><rect x="1280" y="1369" width="202" height="14"/></clipPath><clipPath id="mx-clip-1280-1391-202-67-0"><rect x="1280" y="1391" width="202" height="67"/></clipPath><clipPath id="mx-clip-1267-312-187-29-0"><rect x="1267" y="312" width="187" height="29"/></clipPath><clipPath id="mx-clip-1267-349-187-92-0"><rect x="1267" y="349" width="187" height="92"/></clipPath><clipPath id="mx-clip-1279-37-202-14-0"><rect x="1279" y="37" width="202" height="14"/></clipPath><clipPath id="mx-clip-1279-59-202-82-0"><rect x="1279" y="59" width="202" height="82"/></clipPath><clipPath id="mx-clip-1409-866-152-19-0"><rect x="1409" y="866" width="152" height="19"/></clipPath><clipPath id="mx-clip-1409-893-152-82-0"><rect x="1409" y="893" width="152" height="82"/></clipPath><clipPath id="mx-clip-4-56-457-184-0"><rect x="4" y="56" width="457" height="184"/></clipPath><clipPath id="mx-clip-4-248-457-427-0"><rect x="4" y="248" width="457" height="427"/></clipPath><clipPath id="mx-clip-232-799-152-49-0"><rect x="232" y="799" width="152" height="49"/></clipPath><clipPath id="mx-clip-232-878-152-150-0"><rect x="232" y="878" width="152" height="150"/></clipPath><clipPath id="mx-clip-1590-765-172-34-0"><rect x="1590" y="765" width="172" height="34"/></clipPath><clipPath id="mx-clip-1590-814-172-105-0"><rect x="1590" y="814" width="172" height="105"/></clipPath><clipPath id="mx-clip-772-208-172-34-0"><rect x="772" y="208" width="172" height="34"/></clipPath><clipPath id="mx-clip-772-257-172-90-0"><rect x="772" y="257" width="172" height="90"/></clipPath><clipPath id="mx-clip-1545-199-217-14-0"><rect x="1545" y="199" width="217" height="14"/></clipPath><clipPath id="mx-clip-1545-221-217-67-0"><rect x="1545" y="221" width="217" height="67"/></clipPath><clipPath id="mx-clip-952-1076-202-64-0"><rect x="952" y="1076" width="202" height="64"/></clipPath><clipPath id="mx-clip-952-1148-202-112-0"><rect x="952" y="1148" width="202" height="112"/></clipPath><clipPath id="mx-clip-435-971-262-49-0"><rect x="435" y="971" width="262" height="49"/></clipPath><clipPath id="mx-clip-435-1028-262-172-0"><rect x="435" y="1028" width="262" height="172"/></clipPath><clipPath id="mx-clip-997-1505-217-67-0"><rect x="997" y="1505" width="217" height="67"/></clipPath><clipPath id="mx-clip-570-1444-367-44-0"><rect x="570" y="1444" width="367" height="44"/></clipPath><clipPath id="mx-clip-570-1511-367-127-0"><rect x="570" y="1511" width="367" height="127"/></clipPath></defs><path d="M 668 390 Q 668 158 764 158 Q 860 158 860 171.63" fill="none" stroke="#000000" stroke-miterlimit="10" pointer-events="none"/><path d="M 860 176.88 L 856.5 169.88 L 860 171.63 L 863.5 169.88 Z" fill="#000000" stroke="#000000" stroke-miterlimit="10" pointer-events="none"/><path d="M 668 390 Q 668 6 450 6 Q 232 6 232 19.63" fill="none" stroke="#000000" stroke-miterlimit="10" pointer-events="none"/><path d="M 232 24.88 L 228.5 17.88 L 232 19.63 L 235.5 17.88 Z" fill="#000000" stroke="#000000" stroke-miterlimit="10" pointer-events="none"/><path d="M 566 414 L 566 388 L 769 388 L 769 414" fill="#ffffff" stroke="#000000" stroke-miterlimit="10" pointer-events="none"/><path d="M 566 414 L 566 808 L 769 808 L 769 414" fill="none" stroke="#000000" stroke-miterlimit="10" pointer-events="none"/><path d="M 566 414 L 769 414" fill="none" stroke="#000000" stroke-miterlimit="10" pointer-events="none"/><g fill="#000000" font-family="Helvetica" font-weight="bold" text-anchor="middle" font-size="12px"><text x="665" y="405.5">Jeu</text></g><g fill="#000000" font-family="Helvetica" clip-path="url(#mx-clip-570-419-195-124-0)" font-size="12px"><text x="571.5" y="431.5">int nbrdejoueur;</text><text x="571.5" y="445.5">int tourdejeu;</text><text x="571.5" y="459.5">int joueurcourant;</text><text x="571.5" y="473.5">int nbelimine;</text><text x="571.5" y="487.5">Plateau plateau;</text><text x="571.5" y="501.5">Joueur liste[6];</text><text x="571.5" y="515.5">De de1;</text><text x="571.5" y="529.5">De de2;</text></g><path d="M 566 542 L 769 542" fill="none" stroke="#000000" stroke-miterlimit="10" pointer-events="none"/><g fill="#000000" font-family="Helvetica" clip-path="url(#mx-clip-570-551-195-262-0)" font-size="12px"><text x="571.5" y="563.5">Jeu(Plateau&amp;, int);</text><text x="571.5" y="577.5">void create_joueur(string&amp;, string&amp;);</text><text x="571.5" y="591.5">void schedule();</text><text x="571.5" y="605.5">void jouer();</text><text x="571.5" y="619.5">int gettourdejeu();</text><text x="571.5" y="633.5">void settourdejeu(int);</text><text x="571.5" y="647.5">void toursuivant();</text><text x="571.5" y="661.5">void jouer_maison();</text><text x="571.5" y="675.5">bool compare(string, string);</text><text x="571.5" y="689.5">int getnbrjoueur();</text><text x="571.5" y="703.5">void setnbrjoueur(int);</text><text x="571.5" y="717.5">Plateau getplateau();</text><text x="571.5" y="731.5">void setplateau(Plateau);</text><text x="571.5" y="745.5">Joueur* getjoueur(int);</text><text x="571.5" y="759.5">void setjoueur(Joueur*, int);</text><text x="571.5" y="773.5">De getde1();</text><text x="571.5" y="787.5">De getde2();</text></g><path d="M 1263 611 L 1263 580 L 1458 580 L 1458 611" fill="#ffffff" stroke="#000000" stroke-miterlimit="10" pointer-events="none"/><path d="M 1263 611 L 1263 740 L 1458 740 L 1458 611" fill="none" stroke="#000000" stroke-miterlimit="10" pointer-events="none"/><path d="M 1263 611 L 1458 611" fill="none" stroke="#000000" stroke-miterlimit="10" pointer-events="none"/><g fill="#000000" font-family="Helvetica" font-weight="bold" text-anchor="middle" font-size="12px"><text x="1358" y="597.5">Chance</text></g><g fill="#000000" font-family="Helvetica" clip-path="url(#mx-clip-1267-616-187-29-0)" font-size="12px"><text x="1268.5" y="628.5">string m_carteChance[16];</text></g><path d="M 1263 644 L 1458 644" fill="none" stroke="#000000" stroke-miterlimit="10" pointer-events="none"/><g fill="#000000" font-family="Helvetica" clip-path="url(#mx-clip-1267-653-187-92-0)" font-size="12px"><text x="1268.5" y="665.5">void arreterSur(Joueur* player);</text><text x="1268.5" y="679.5">Chance(string, Case*);</text><text x="1268.5" y="693.5">string getCarteChance(int);</text><text x="1268.5" y="707.5">void setCarteChance(int, string);</text></g><path d="M 1510.5 462 L 1510.5 436 L 1750.5 436 L 1750.5 462" fill="#ffffff" stroke="#000000" stroke-miterlimit="10" pointer-events="none"/><path d="M 1510.5 462 L 1510.5 601 L 1750.5 601 L 1750.5 462" fill="none" stroke="#000000" stroke-miterlimit="10" pointer-events="none"/><path d="M 1510.5 462 L 1750.5 462" fill="none" stroke="#000000" stroke-miterlimit="10" pointer-events="none"/><g fill="#000000" font-family="Helvetica" font-weight="bold" text-anchor="middle" font-size="12px"><text x="1628" y="453.5">Communauté</text></g><g fill="#000000" font-family="Helvetica" clip-path="url(#mx-clip-1515-467-232-34-0)" font-size="12px"><text x="1516" y="479.5">string m_carteCommunaute[16];</text></g><path d="M 1510.5 500 L 1750.5 500" fill="none" stroke="#000000" stroke-miterlimit="10" pointer-events="none"/><g fill="#000000" font-family="Helvetica" clip-path="url(#mx-clip-1515-509-232-97-0)" font-size="12px"><text x="1516" y="521.5">void arreterSur(Joueur* player);</text><text x="1516" y="535.5">Communaute(std::string, Case*);</text><text x="1516" y="549.5">string getCarteCommunaute(int);</text><text x="1516" y="563.5">voidsetCarteCommunaute(int, string);</text></g><path d="M 993 409.5 L 983 409.5 L 983 29 L 1256.5 29 L 1256.5 18.5 L 1275.5 34 L 1256.5 49.5 L 1256.5 39 L 993 39 Z" fill="none" stroke="#000000" stroke-miterlimit="1.42" pointer-events="none"/><path d="M 1256.5 29 L 1256.5 18.5 L 1275.5 34 L 1256.5 49.5 L 1256.5 39" fill="none" stroke="#000000" stroke-miterlimit="4" pointer-events="none"/><path d="M 993 409.5 L 983 409.5 L 983 197 L 1520.5 197 L 1520.5 186.5 L 1539.5 202 L 1520.5 217.5 L 1520.5 207 L 993 207 Z" fill="none" stroke="#000000" stroke-miterlimit="1.42" pointer-events="none"/><path d="M 1520.5 197 L 1520.5 186.5 L 1539.5 202 L 1520.5 217.5 L 1520.5 207" fill="none" stroke="#000000" stroke-miterlimit="4" pointer-events="none"/><path d="M 993 409.5 L 983 409.5 L 983 317 L 1244.5 317 L 1244.5 306.5 L 1263.5 322 L 1244.5 337.5 L 1244.5 327 L 993 327 Z" fill="none" stroke="#000000" stroke-miterlimit="1.42" pointer-events="none"/><path d="M 1244.5 317 L 1244.5 306.5 L 1263.5 322 L 1244.5 337.5 L 1244.5 327" fill="none" stroke="#000000" stroke-miterlimit="4" pointer-events="none"/><path d="M 1040.5 607 L 1040.5 597 L 1133 597 L 1133 773 L 1568.5 773 L 1568.5 762.5 L 1587.5 778 L 1568.5 793.5 L 1568.5 783 L 1123 783 L 1123 607 Z" fill="none" stroke="#000000" stroke-miterlimit="1.42" pointer-events="none"/><path d="M 1568.5 773 L 1568.5 762.5 L 1587.5 778 L 1568.5 793.5 L 1568.5 783" fill="none" stroke="#000000" stroke-miterlimit="4" pointer-events="none"/><path d="M 843 436 L 843 410 L 1038 410 L 1038 436" fill="#ffffff" stroke="#000000" stroke-miterlimit="10" pointer-events="none"/><path d="M 843 436 L 843 665 L 1038 665 L 1038 436" fill="none" stroke="#000000" stroke-miterlimit="10" pointer-events="none"/><path d="M 843 436 L 1038 436" fill="none" stroke="#000000" stroke-miterlimit="10" pointer-events="none"/><g fill="#000000" font-family="Helvetica" font-weight="bold" text-anchor="middle" font-size="12px"><text x="938" y="427.5">Case</text></g><g fill="#000000" font-family="Helvetica" clip-path="url(#mx-clip-847-441-187-64-0)" font-size="12px"><text x="848.5" y="453.5">string m_name;</text><text x="848.5" y="467.5">Case* m_ptsuivante;</text></g><path d="M 843 504 L 1038 504" fill="none" stroke="#000000" stroke-miterlimit="10" pointer-events="none"/><g fill="#000000" font-family="Helvetica" clip-path="url(#mx-clip-847-513-187-157-0)" font-size="12px"><text x="848.5" y="525.5">Case(string, Case*);</text><text x="848.5" y="539.5">Case(constCase&amp;);</text><text x="848.5" y="553.5">string getName();</text><text x="848.5" y="567.5">Case* getSuivante();</text><text x="848.5" y="581.5">void setName(string);</text><text x="848.5" y="595.5">void setSuivante(Case*);</text><text x="848.5" y="609.5">virtual voidarreterSur(Joueur*) = 0;</text></g><path d="M 1275.5 1364.45 L 1275.5 1333.45 L 1485.5 1333.45 L 1485.5 1364.45" fill="#ffffff" stroke="#000000" stroke-miterlimit="10" pointer-events="none"/><path d="M 1275.5 1364.45 L 1275.5 1453.45 L 1485.5 1453.45 L 1485.5 1364.45" fill="none" stroke="#000000" stroke-miterlimit="10" pointer-events="none"/><path d="M 1275.5 1364.45 L 1485.5 1364.45" fill="none" stroke="#000000" stroke-miterlimit="10" pointer-events="none"/><g fill="#000000" font-family="Helvetica" font-weight="bold" text-anchor="middle" font-size="12px"><text x="1378" y="1350.95">Gare</text></g><g fill="#000000" font-family="Helvetica" clip-path="url(#mx-clip-1280-1369-202-14-0)" font-size="12px"/><path d="M 1275.5 1382.45 L 1485.5 1382.45" fill="none" stroke="#000000" stroke-miterlimit="10" pointer-events="none"/><g fill="#000000" font-family="Helvetica" clip-path="url(#mx-clip-1280-1391-202-67-0)" font-size="12px"><text x="1281" y="1403.95">Gare(string, Case*, int, int*loyer);</text><text x="1281" y="1417.95">void arreterSur(Joueur* player);</text></g><path d="M 1263 307.09 L 1263 276.09 L 1458 276.09 L 1458 307.09" fill="#ffffff" stroke="#000000" stroke-miterlimit="10" pointer-events="none"/><path d="M 1263 307.09 L 1263 436.09 L 1458 436.09 L 1458 307.09" fill="none" stroke="#000000" stroke-miterlimit="10" pointer-events="none"/><path d="M 1263 307.09 L 1458 307.09" fill="none" stroke="#000000" stroke-miterlimit="10" pointer-events="none"/><g fill="#000000" font-family="Helvetica" font-weight="bold" text-anchor="middle" font-size="12px"><text x="1358" y="293.59">Depart</text></g><g fill="#000000" font-family="Helvetica" clip-path="url(#mx-clip-1267-312-187-29-0)" font-size="12px"><text x="1268.5" y="324.59">int prime;</text></g><path d="M 1263 340.09 L 1458 340.09" fill="none" stroke="#000000" stroke-miterlimit="10" pointer-events="none"/><g fill="#000000" font-family="Helvetica" clip-path="url(#mx-clip-1267-349-187-92-0)" font-size="12px"><text x="1268.5" y="361.59">Depart(int, Case*);</text><text x="1268.5" y="375.59">void arreterSur(Joueur* player);</text><text x="1268.5" y="389.59">void setprime(int);</text><text x="1268.5" y="403.59">int getprime();</text></g><path d="M 1275.36 31.59 L 1275.36 -0.41 L 1485.36 -0.41 L 1485.36 31.59" fill="#ffffff" stroke="#000000" stroke-miterlimit="10" pointer-events="none"/><path d="M 1275.36 31.59 L 1275.36 135.59 L 1485.36 135.59 L 1485.36 31.59" fill="none" stroke="#000000" stroke-miterlimit="10" pointer-events="none"/><path d="M 1275.36 31.59 L 1485.36 31.59" fill="none" stroke="#000000" stroke-miterlimit="10" pointer-events="none"/><g fill="#000000" font-family="Helvetica" font-weight="bold" text-anchor="middle" font-size="12px"><text x="1377.86" y="17.09">GoPrison</text></g><g fill="#000000" font-family="Helvetica" clip-path="url(#mx-clip-1279-37-202-14-0)" font-size="12px"/><path d="M 1275.36 49.59 L 1485.36 49.59" fill="none" stroke="#000000" stroke-miterlimit="10" pointer-events="none"/><g fill="#000000" font-family="Helvetica" clip-path="url(#mx-clip-1279-59-202-82-0)" font-size="12px"><text x="1280.86" y="71.09">GoPrison(Case*);</text><text x="1280.86" y="85.09">void arreterSur(Joueur* player);</text></g><path d="M 1405.43 860.5 L 1405.43 834.5 L 1565.43 834.5 L 1565.43 860.5" fill="#ffffff" stroke="#000000" stroke-miterlimit="10" pointer-events="none"/><path d="M 1405.43 860.5 L 1405.43 969.5 L 1565.43 969.5 L 1565.43 860.5" fill="none" stroke="#000000" stroke-miterlimit="10" pointer-events="none"/><path d="M 1405.43 860.5 L 1565.43 860.5" fill="none" stroke="#000000" stroke-miterlimit="10" pointer-events="none"/><g fill="#000000" font-family="Helvetica" font-weight="bold" text-anchor="middle" font-size="12px"><text x="1482.93" y="852">Impot</text></g><g fill="#000000" font-family="Helvetica" clip-path="url(#mx-clip-1409-866-152-19-0)" font-size="12px"><text x="1410.93" y="878">int taxe; </text></g><path d="M 1405.43 883.5 L 1565.43 883.5" fill="none" stroke="#000000" stroke-miterlimit="10" pointer-events="none"/><g fill="#000000" font-family="Helvetica" clip-path="url(#mx-clip-1409-893-152-82-0)" font-size="12px"><text x="1410.93" y="905">void arreterSur(Joueur*);</text><text x="1410.93" y="919">Impot(std::string, Case*, int);</text><text x="1410.93" y="933">void settaxe(int);</text><text x="1410.93" y="947">int gettaxe();</text></g><path d="M 0 51 L 0 25 L 465 25 L 465 51" fill="#ffffff" stroke="#000000" stroke-miterlimit="10" pointer-events="none"/><path d="M 0 51 L 0 670 L 465 670 L 465 51" fill="none" stroke="#000000" stroke-miterlimit="10" pointer-events="none"/><path d="M 0 51 L 465 51" fill="none" stroke="#000000" stroke-miterlimit="10" pointer-events="none"/><g fill="#000000" font-family="Helvetica" font-weight="bold" text-anchor="middle" font-size="12px"><text x="230" y="42.5">Joueur</text></g><g fill="#000000" font-family="Helvetica" clip-path="url(#mx-clip-4-56-457-184-0)" font-size="12px"><text x="5.5" y="68.5">bool status;</text><text x="5.5" y="82.5">string nom;</text><text x="5.5" y="96.5">int solde;</text><text x="5.5" y="110.5">Pion* pion; </text><text x="5.5" y="124.5">int nbPropriete;</text><text x="5.5" y="138.5">int nbCompagnie;</text><text x="5.5" y="152.5">Propriete** liste_acquisitions; </text><text x="5.5" y="166.5">int nbDouble;</text><text x="5.5" y="180.5">int nbgare;</text><text x="5.5" y="194.5">bool inprison;</text><text x="5.5" y="208.5">int tourinprison;</text><text x="5.5" y="222.5">int valeurde;</text></g><path d="M 0 239 L 465 239" fill="none" stroke="#000000" stroke-miterlimit="10" pointer-events="none"/><g fill="#000000" font-family="Helvetica" clip-path="url(#mx-clip-4-248-457-427-0)" font-size="12px"><text x="5.5" y="260.5">Joueur(conststd::string&amp;, Pion&amp;, constbool, Propriete**,int,int,int,int,int,bool,int);</text><text x="5.5" y="274.5">int getvaleurde();</text><text x="5.5" y="288.5">bool getStatus();</text><text x="5.5" y="302.5">string getNom();</text><text x="5.5" y="316.5">int getSolde();</text><text x="5.5" y="330.5">Pion* getPion();</text><text x="5.5" y="344.5">int getNbPropriete();</text><text x="5.5" y="358.5">int getNbCompagnie();</text><text x="5.5" y="372.5">Propriete** getListe_acquisitions();</text><text x="5.5" y="386.5">int getNbDouble();</text><text x="5.5" y="400.5">int getnbgare();</text><text x="5.5" y="414.5">bool getinprison();</text><text x="5.5" y="428.5">int gettourinprison();</text><text x="5.5" y="442.5">void setvaleurde(int);</text><text x="5.5" y="456.5">void addgare();</text><text x="5.5" y="470.5">void setinprison(bool);</text><text x="5.5" y="484.5">void settourinprison(int);</text><text x="5.5" y="498.5">void setStatus(constbool);</text><text x="5.5" y="512.5">void setNom(conststd::string&amp;);</text><text x="5.5" y="526.5">void setSolde(int);</text><text x="5.5" y="540.5">void setNbPropriete(int);</text><text x="5.5" y="554.5">void addCompagnie();</text><text x="5.5" y="568.5">void setPion(constPion&amp;);</text><text x="5.5" y="582.5">void setNbDouble(int);</text><text x="5.5" y="596.5">void ajouterAcquisition(Propriete*);</text><text x="5.5" y="610.5">void crediter(int);</text><text x="5.5" y="624.5">void debiter(int);</text><text x="5.5" y="638.5">void displayInfo();</text><text x="5.5" y="652.5">void perdre();</text></g><path d="M 228 794 L 228 768 L 388 768 L 388 794" fill="#ffffff" stroke="#000000" stroke-miterlimit="10" pointer-events="none"/><path d="M 228 794 L 228 1023 L 388 1023 L 388 794" fill="none" stroke="#000000" stroke-miterlimit="10" pointer-events="none"/><path d="M 228 794 L 388 794" fill="none" stroke="#000000" stroke-miterlimit="10" pointer-events="none"/><g fill="#000000" font-family="Helvetica" font-weight="bold" text-anchor="middle" font-size="12px"><text x="305.5" y="785.5">Pion</text></g><g fill="#000000" font-family="Helvetica" clip-path="url(#mx-clip-232-799-152-49-0)" font-size="12px"><text x="233.5" y="811.5">string nom;</text><text x="233.5" y="825.5">Case* ptCase;</text></g><path d="M 228 858 L 388 858" fill="none" stroke="#000000" stroke-miterlimit="10" pointer-events="none"/><g fill="#000000" font-family="Helvetica" clip-path="url(#mx-clip-232-878-152-150-0)" font-size="12px"><text x="233.5" y="890.5">Pion(string&amp;, Case*); </text><text x="233.5" y="904.5">Pion(const Pion&amp;);</text><text x="233.5" y="918.5">Pion();</text><text x="233.5" y="932.5">stringgetNom();</text><text x="233.5" y="946.5">Case* getPtCase();</text><text x="233.5" y="960.5">void setNom(std::string&amp;);</text><text x="233.5" y="974.5">void setPtCase(Case*);</text><text x="233.5" y="988.5">void operator++(int);</text></g><path d="M 1586 759.5 L 1586 733.5 L 1766 733.5 L 1766 759.5" fill="#ffffff" stroke="#000000" stroke-miterlimit="10" pointer-events="none"/><path d="M 1586 759.5 L 1586 913.5 L 1766 913.5 L 1766 759.5" fill="none" stroke="#000000" stroke-miterlimit="10" pointer-events="none"/><path d="M 1586 759.5 L 1766 759.5" fill="none" stroke="#000000" stroke-miterlimit="10" pointer-events="none"/><g fill="#000000" font-family="Helvetica" font-weight="bold" text-anchor="middle" font-size="12px"><text x="1673.5" y="751">Parcgratuit</text></g><g fill="#000000" font-family="Helvetica" clip-path="url(#mx-clip-1590-765-172-34-0)" font-size="12px"><text x="1591.5" y="777">int cagnotte;</text></g><path d="M 1586 801 L 1766 801" fill="none" stroke="#000000" stroke-miterlimit="10" pointer-events="none"/><g fill="#000000" font-family="Helvetica" clip-path="url(#mx-clip-1590-814-172-105-0)" font-size="12px"><text x="1591.5" y="826">void arreterSur();</text><text x="1591.5" y="840">void addcagnotte(int);</text><text x="1591.5" y="854">ParcGratuit(Case*, int);</text><text x="1591.5" y="868">void setcagnotte(int);</text><text x="1591.5" y="882">int getcagnotte();</text></g><path d="M 768 202.5 L 768 176.5 L 948 176.5 L 948 202.5" fill="#ffffff" stroke="#000000" stroke-miterlimit="10" pointer-events="none"/><path d="M 768 202.5 L 768 341.5 L 948 341.5 L 948 202.5" fill="none" stroke="#000000" stroke-miterlimit="10" pointer-events="none"/><path d="M 768 202.5 L 948 202.5" fill="none" stroke="#000000" stroke-miterlimit="10" pointer-events="none"/><g fill="#000000" font-family="Helvetica" font-weight="bold" text-anchor="middle" font-size="12px"><text x="855.5" y="194">Plateau</text></g><g fill="#000000" font-family="Helvetica" clip-path="url(#mx-clip-772-208-172-34-0)" font-size="12px"><text x="773.5" y="220">Case* cases[40];</text></g><path d="M 768 244 L 948 244" fill="none" stroke="#000000" stroke-miterlimit="10" pointer-events="none"/><g fill="#000000" font-family="Helvetica" clip-path="url(#mx-clip-772-257-172-90-0)" font-size="12px"><text x="773.5" y="269">Plateau();</text><text x="773.5" y="283">Plateau (Plateau&amp;p);</text><text x="773.5" y="297">Case* getcase(int);</text><text x="773.5" y="311">void arreterSur(inti, Joueur*);</text><text x="773.5" y="325">void setcase(Case*, int);</text></g><path d="M 1541 193.94 L 1541 162.94 L 1766 162.94 L 1766 193.94" fill="#ffffff" stroke="#000000" stroke-miterlimit="10" pointer-events="none"/><path d="M 1541 193.94 L 1541 282.94 L 1766 282.94 L 1766 193.94" fill="none" stroke="#000000" stroke-miterlimit="10" pointer-events="none"/><path d="M 1541 193.94 L 1766 193.94" fill="none" stroke="#000000" stroke-miterlimit="10" pointer-events="none"/><g fill="#000000" font-family="Helvetica" font-weight="bold" text-anchor="middle" font-size="12px"><text x="1651" y="180.44">Prison</text></g><g fill="#000000" font-family="Helvetica" clip-path="url(#mx-clip-1545-199-217-14-0)" font-size="12px"/><path d="M 1541 211.94 L 1766 211.94" fill="none" stroke="#000000" stroke-miterlimit="10" pointer-events="none"/><g fill="#000000" font-family="Helvetica" clip-path="url(#mx-clip-1545-221-217-67-0)" font-size="12px"><text x="1546.5" y="233.44">Prison(Case*ptsuivante);</text><text x="1546.5" y="247.44">void arreterSurPrison(Joueur*, int, int);</text><text x="1546.5" y="261.44">void arreterSur(Joueur*);</text></g><path d="M 1156.5 1207 L 1156.5 1197 L 1385 1197 L 1385 1314.5 L 1395.5 1314.5 L 1380 1333.5 L 1364.5 1314.5 L 1375 1314.5 L 1375 1207 Z" fill="none" stroke="#000000" stroke-miterlimit="1.42" pointer-events="none"/><path d="M 1385 1314.5 L 1395.5 1314.5 L 1380 1333.5 L 1364.5 1314.5 L 1375 1314.5" fill="none" stroke="#000000" stroke-miterlimit="4" pointer-events="none"/><path d="M 1099 1254.5 L 1109 1254.5 L 1109 1426.5 L 1119.5 1426.5 L 1104 1445.5 L 1088.5 1426.5 L 1099 1426.5 Z" fill="none" stroke="#000000" stroke-miterlimit="10" pointer-events="none"/><path d="M 947.85 1070.5 L 947.85 1044.5 L 1157.85 1044.5 L 1157.85 1070.5" fill="#ffffff" stroke="#000000" stroke-miterlimit="10" pointer-events="none"/><path d="M 947.85 1070.5 L 947.85 1254.5 L 1157.85 1254.5 L 1157.85 1070.5" fill="none" stroke="#000000" stroke-miterlimit="10" pointer-events="none"/><path d="M 947.85 1070.5 L 1157.85 1070.5" fill="none" stroke="#000000" stroke-miterlimit="10" pointer-events="none"/><g fill="#000000" font-family="Helvetica" font-weight="bold" text-anchor="middle" font-size="12px"><text x="1050.35" y="1062">Propriete</text></g><g fill="#000000" font-family="Helvetica" clip-path="url(#mx-clip-952-1076-202-64-0)" font-size="12px"><text x="953.35" y="1088">intm_prixAchat;</text><text x="953.35" y="1102">intm_loyer[6];</text><text x="953.35" y="1116">Joueur* m_proprietaire;</text></g><path d="M 947.85 1138.5 L 1157.85 1138.5" fill="none" stroke="#000000" stroke-miterlimit="10" pointer-events="none"/><g fill="#000000" font-family="Helvetica" clip-path="url(#mx-clip-952-1148-202-112-0)" font-size="12px"><text x="953.35" y="1160">Propriete(string,  Case*, int, int*);</text><text x="953.35" y="1174">int getPrixAchat();</text><text x="953.35" y="1188">int getLoyer(inti);</text><text x="953.35" y="1202">Joueur*getProprietaire();</text><text x="953.35" y="1216">void setPrixAchat(int);</text><text x="953.35" y="1230">void setLoyer(int, int);</text><text x="953.35" y="1244">void setProprietaire(Joueur*);</text></g><path d="M 430.5 966 L 430.5 940 L 700.5 940 L 700.5 966" fill="#ffffff" stroke="#000000" stroke-miterlimit="10" pointer-events="none"/><path d="M 430.5 966 L 430.5 1195 L 700.5 1195 L 700.5 966" fill="none" stroke="#000000" stroke-miterlimit="10" pointer-events="none"/><path d="M 430.5 966 L 700.5 966" fill="none" stroke="#000000" stroke-miterlimit="10" pointer-events="none"/><g fill="#000000" font-family="Helvetica" font-weight="bold" text-anchor="middle" font-size="12px"><text x="563" y="957.5">De</text></g><g fill="#000000" font-family="Helvetica" clip-path="url(#mx-clip-435-971-262-49-0)" font-size="12px"><text x="436" y="983.5">int nbFaces;</text><text x="436" y="997.5">int *valeurs;</text><text x="436" y="1011.5">int valeur_actuelle;</text></g><path d="M 430.5 1019 L 700.5 1019" fill="none" stroke="#000000" stroke-miterlimit="10" pointer-events="none"/><g fill="#000000" font-family="Helvetica" clip-path="url(#mx-clip-435-1028-262-172-0)" font-size="12px"><text x="436" y="1040.5">De();</text><text x="436" y="1054.5">De(int, int*);</text><text x="436" y="1068.5">De(constDe&amp;);</text><text x="436" y="1082.5">void setNbFaces(int);</text><text x="436" y="1096.5">void setValeurs(int*);</text><text x="436" y="1110.5">void setValeur(int);</text><text x="436" y="1124.5">int getNbFaces();</text><text x="436" y="1138.5">int getValeur();</text><text x="436" y="1152.5">int* getValeurs();</text><text x="436" y="1166.5">void lancerDe();</text><text x="436" y="1180.5">void display();</text></g><path d="M 568 678 Q 548 678 548 782 Q 548 886 634 886 Q 720 886 720 938 Q 720 990 706.37 990" fill="none" stroke="#000000" stroke-miterlimit="10" pointer-events="none"/><path d="M 701.12 990 L 708.12 986.5 L 706.37 990 L 708.12 993.5 Z" fill="#000000" stroke="#000000" stroke-miterlimit="10" pointer-events="none"/><path d="M 464 458 Q 484 458 484 588 Q 484 718 396 718 Q 308 718 308 763.63" fill="none" stroke="#000000" stroke-miterlimit="10" pointer-events="none"/><path d="M 308 768.88 L 304.5 761.88 L 308 763.63 L 311.5 761.88 Z" fill="#000000" stroke="#000000" stroke-miterlimit="10" pointer-events="none"/><path d="M 948 218 Q 968 218 968 270 Q 968 322 954 322 Q 940 322 940 403.63" fill="none" stroke="#000000" stroke-miterlimit="10" pointer-events="none"/><path d="M 940 408.88 L 936.5 401.88 L 940 403.63 L 943.5 401.88 Z" fill="#000000" stroke="#000000" stroke-miterlimit="10" pointer-events="none"/><path d="M 947.5 1193 L 947.5 1203 L 757 1203 L 757 1390.5 L 767.5 1390.5 L 752 1409.5 L 736.5 1390.5 L 747 1390.5 L 747 1193 Z" fill="none" stroke="#000000" stroke-miterlimit="1.42" pointer-events="none"/><path d="M 757 1390.5 L 767.5 1390.5 L 752 1409.5 L 736.5 1390.5 L 747 1390.5" fill="none" stroke="#000000" stroke-miterlimit="4" pointer-events="none"/><path d="M 843.5 581 L 843.5 591 L 829 591 L 829 849 L 1005 849 L 1005 1026.5 L 1015.5 1026.5 L 1000 1045.5 L 984.5 1026.5 L 995 1026.5 L 995 859 L 819 859 L 819 581 Z" fill="none" stroke="#000000" stroke-miterlimit="1.42" pointer-events="none"/><path d="M 1005 1026.5 L 1015.5 1026.5 L 1000 1045.5 L 984.5 1026.5 L 995 1026.5" fill="none" stroke="#000000" stroke-miterlimit="4" pointer-events="none"/><path d="M 1040.5 475 L 1040.5 465 L 1281 465 L 1281 549 L 1492.5 549 L 1492.5 538.5 L 1511.5 554 L 1492.5 569.5 L 1492.5 559 L 1271 559 L 1271 475 Z" fill="none" stroke="#000000" stroke-miterlimit="1.42" pointer-events="none"/><path d="M 1492.5 549 L 1492.5 538.5 L 1511.5 554 L 1492.5 569.5 L 1492.5 559" fill="none" stroke="#000000" stroke-miterlimit="4" pointer-events="none"/><path d="M 1040.5 591 L 1040.5 581 L 1138 581 Q 1148 581 1148 591 L 1148 925 L 1386.65 925 L 1386.65 915.68 L 1403.5 930 L 1386.65 944.32 L 1386.65 935 L 1148 935 Q 1138 935 1138 925 L 1138 591 Z" fill="#ffffff" stroke="#000000" stroke-linejoin="round" stroke-miterlimit="10" pointer-events="none"/><path d="M 1386.65 925 L 1386.65 915.68 L 1403.5 930 L 1386.65 944.32 L 1386.65 935" fill="none" stroke="#000000" stroke-linejoin="flat" stroke-miterlimit="4" pointer-events="none"/><path d="M 993 1476.5 L 993 1445.5 L 1218 1445.5 L 1218 1476.5" fill="#ffffff" stroke="#000000" stroke-miterlimit="10" pointer-events="none"/><path d="M 993 1476.5 L 993 1566.5 L 1218 1566.5 L 1218 1476.5" fill="none" stroke="#000000" stroke-miterlimit="10" pointer-events="none"/><path d="M 993 1476.5 L 1218 1476.5" fill="none" stroke="#000000" stroke-miterlimit="10" pointer-events="none"/><g fill="#000000" font-family="Helvetica" font-weight="bold" text-anchor="middle" font-size="12px"><text x="1103" y="1463">Compagnie</text></g><path d="M 993 1488 L 1218 1488" fill="none" stroke="#000000" stroke-miterlimit="10" pointer-events="none"/><g fill="#000000" font-family="Helvetica" clip-path="url(#mx-clip-997-1505-217-67-0)" font-size="12px"><text x="998.5" y="1517">Compagnie(string&amp;,  Case*,int, int, int*);</text><text x="998.5" y="1531">void arreterSur(Joueur* player);</text></g><path d="M 565.5 1439 L 565.5 1408 L 940.5 1408 L 940.5 1439" fill="#ffffff" stroke="#000000" stroke-miterlimit="10" pointer-events="none"/><path d="M 565.5 1439 L 565.5 1633 L 940.5 1633 L 940.5 1439" fill="none" stroke="#000000" stroke-miterlimit="10" pointer-events="none"/><path d="M 565.5 1439 L 940.5 1439" fill="none" stroke="#000000" stroke-miterlimit="10" pointer-events="none"/><g fill="#000000" font-family="Helvetica" font-weight="bold" text-anchor="middle" font-size="12px"><text x="750.5" y="1425.5">Terrain</text></g><g fill="#000000" font-family="Helvetica" clip-path="url(#mx-clip-570-1444-367-44-0)" font-size="12px"><text x="571" y="1456.5">string couleur;</text><text x="571" y="1470.5">int nbrmaison;</text><text x="571" y="1484.5">int prixmaison;</text></g><path d="M 565.5 1494.5 L 940.5 1494.5" fill="none" stroke="#000000" stroke-miterlimit="10" pointer-events="none"/><g fill="#000000" font-family="Helvetica" clip-path="url(#mx-clip-570-1511-367-127-0)" font-size="12px"><text x="571" y="1523.5">Terrain(const string&amp;, const string&amp;,  Case*, int, int*, intprixm);</text><text x="571" y="1537.5">string getcouleur();</text><text x="571" y="1551.5">void setcouleur(string);</text><text x="571" y="1565.5">void setnbrmaison(int);</text><text x="571" y="1579.5">int getnbrmaison();</text><text x="571" y="1593.5">int getprixm_h();</text><text x="571" y="1607.5">void setprixm_h(int);</text><text x="571" y="1621.5">void arreterSur(Joueur*);</text></g><path d="M 1040.5 591 L 1040.5 581 L 1193 581 L 1193 689 L 1244.5 689 L 1244.5 678.5 L 1263.5 694 L 1244.5 709.5 L 1244.5 699 L 1183 699 L 1183 591 Z" fill="none" stroke="#000000" stroke-miterlimit="1.42" pointer-events="none"/><path d="M 1244.5 689 L 1244.5 678.5 L 1263.5 694 L 1244.5 709.5 L 1244.5 699" fill="none" stroke="#000000" stroke-miterlimit="4" pointer-events="none"/></svg>